<svg width="150" height="28" viewBox="0 0 150 28" fill="none" xmlns="http://www.w3.org/2000/svg">
<g filter="url(#filter0_d_38_866)">
<g clip-path="url(#clip0_38_866)">
<path d="M14 14.3917L19.15 17.5001L17.7834 11.6417L22.3334 7.70008L16.3417 7.19175L14 1.66675L11.6584 7.19175L5.66669 7.70008L10.2167 11.6417L8.85002 17.5001L14 14.3917Z" fill="#F3DC08"/>
</g>
<g clip-path="url(#clip1_38_866)">
<path d="M42 14.3917L47.15 17.5001L45.7834 11.6417L50.3334 7.70008L44.3417 7.19175L42 1.66675L39.6584 7.19175L33.6667 7.70008L38.2167 11.6417L36.85 17.5001L42 14.3917Z" fill="#F3DC08"/>
</g>
<g clip-path="url(#clip2_38_866)">
<path d="M70 14.3917L75.15 17.5001L73.7834 11.6417L78.3334 7.70008L72.3417 7.19175L70 1.66675L67.6584 7.19175L61.6667 7.70008L66.2167 11.6417L64.85 17.5001L70 14.3917Z" fill="#F3DC08"/>
</g>
<g clip-path="url(#clip3_38_866)">
<path d="M98 14.3917L103.15 17.5001L101.783 11.6417L106.333 7.70008L100.342 7.19175L98 1.66675L95.6583 7.19175L89.6666 7.70008L94.2166 11.6417L92.85 17.5001L98 14.3917Z" fill="#F3DC08"/>
</g>
<g clip-path="url(#clip4_38_866)">
<path d="M126 14.3917L131.15 17.5001L129.783 11.6417L134.333 7.70008L128.342 7.19175L126 1.66675L123.658 7.19175L117.667 7.70008L122.217 11.6417L120.85 17.5001L126 14.3917Z" fill="#F3DC08"/>
</g>
</g>
<defs>
<filter id="filter0_d_38_866" x="0" y="0" width="154" height="28" filterUnits="userSpaceOnUse" color-interpolation-filters="sRGB">
<feFlood flood-opacity="0" result="BackgroundImageFix"/>
<feColorMatrix in="SourceAlpha" type="matrix" values="0 0 0 0 0 0 0 0 0 0 0 0 0 0 0 0 0 0 127 0" result="hardAlpha"/>
<feOffset dy="4"/>
<feGaussianBlur stdDeviation="2"/>
<feComposite in2="hardAlpha" operator="out"/>
<feColorMatrix type="matrix" values="0 0 0 0 0 0 0 0 0 0 0 0 0 0 0 0 0 0 0.25 0"/>
<feBlend mode="normal" in2="BackgroundImageFix" result="effect1_dropShadow_38_866"/>
<feBlend mode="normal" in="SourceGraphic" in2="effect1_dropShadow_38_866" result="shape"/>
</filter>
<clipPath id="clip0_38_866">
<rect width="20" height="20" fill="white" transform="translate(4)"/>
</clipPath>
<clipPath id="clip1_38_866">
<rect width="20" height="20" fill="white" transform="translate(32)"/>
</clipPath>
<clipPath id="clip2_38_866">
<rect width="20" height="20" fill="white" transform="translate(60)"/>
</clipPath>
<clipPath id="clip3_38_866">
<rect width="20" height="20" fill="white" transform="translate(88)"/>
</clipPath>
<clipPath id="clip4_38_866">
<rect width="20" height="20" fill="white" transform="translate(116)"/>
</clipPath>
</defs>
</svg>
