<svg width="40" height="40" viewBox="0 0 40 40" fill="none" xmlns="http://www.w3.org/2000/svg">
<g clip-path="url(#clip0_158_1400)">
<path d="M18.8348 30.4358L18.8326 30.4338C14.9399 26.904 11.8308 24.0807 9.6767 21.4472C7.53987 18.8347 6.5 16.5923 6.5 14.25C6.5 10.4584 9.45843 7.5 13.25 7.5C15.4058 7.5 17.4984 8.5109 18.858 10.1075L20 11.4486L21.142 10.1075C22.5016 8.5109 24.5942 7.5 26.75 7.5C30.5416 7.5 33.5 10.4584 33.5 14.25C33.5 16.5923 32.4601 18.8348 30.323 21.4495C28.1689 24.0849 25.0601 26.9114 21.1678 30.4484C21.1673 30.4489 21.1667 30.4494 21.1662 30.4499L20.0038 31.5L18.8348 30.4358Z" stroke="#011526" stroke-width="3"/>
</g>
<defs>
<clipPath id="clip0_158_1400">
<rect width="40" height="40" fill="white"/>
</clipPath>
</defs>
</svg>
