<svg width="40" height="40" viewBox="0 0 40 40" fill="none" xmlns="http://www.w3.org/2000/svg">
<g clip-path="url(#clip0_138_138)">
<path d="M18.1616 31.1753L18.1609 31.1746C14.2883 27.663 11.1144 24.7844 8.90265 22.0803C6.69662 19.3832 5.5 16.9208 5.5 14.25C5.5 9.90614 8.90614 6.5 13.25 6.5C15.7086 6.5 18.0761 7.64697 19.6193 9.45917L20 9.9062L20.3807 9.45917C21.9239 7.64697 24.2914 6.5 26.75 6.5C31.0939 6.5 34.5 9.90614 34.5 14.25C34.5 16.9208 33.3034 19.3833 31.0972 22.0823C28.8916 24.7808 25.7293 27.6545 21.8715 31.1602L21.8398 31.189L21.8387 31.19L20.0013 32.85L18.1616 31.1753Z" fill="#F80C0C" stroke="black"/>
</g>
<defs>
<clipPath id="clip0_138_138">
<rect width="40" height="40" fill="white"/>
</clipPath>
</defs>
</svg>
