<svg width="35" height="35" viewBox="0 0 35 35" fill="none" xmlns="http://www.w3.org/2000/svg">
<path d="M8.75 4.375C6.35109 4.375 4.375 6.35109 4.375 8.75V26.25C4.375 28.6489 6.35109 30.625 8.75 30.625H26.25C28.6489 30.625 30.625 28.6489 30.625 26.25V8.75C30.625 6.35109 28.6489 4.375 26.25 4.375H8.75ZM8.75 7.29167H26.25C27.074 7.29167 27.7083 7.926 27.7083 8.75V26.25C27.7083 27.074 27.074 27.7083 26.25 27.7083H8.75C7.926 27.7083 7.29167 27.074 7.29167 26.25V8.75C7.29167 7.926 7.926 7.29167 8.75 7.29167ZM17.5 10.2083V20.4167C17.5 21.2407 16.8657 21.875 16.0417 21.875C15.2177 21.875 14.5833 21.2407 14.5833 20.4167C14.5833 19.5927 15.2177 18.9583 16.0417 18.9583V16.0417C13.6428 16.0417 11.6667 18.0178 11.6667 20.4167C11.6667 22.8156 13.6428 24.7917 16.0417 24.7917C18.4406 24.7917 20.4167 22.8156 20.4167 20.4167V14.9223C21.3152 15.5624 22.2529 16.0417 23.3333 16.0417V13.125C23.2643 13.125 22.2581 12.8055 21.556 12.1936C20.8539 11.5817 20.4167 10.8135 20.4167 10.2083H17.5Z" fill="#FAF2F2"/>
</svg>
